{"title":"WWE FRIDAY NIGHT SMACKDOWN 9_9_2011 HDTV BZINGAZ.flv","uid":6664322,"size":580696914,"categoryP":"video","categoryS":"tv_shows","magnet":"?xt=urn:btih:ededa6b9ff6dc7be81202a591ee6fbcc80b17b66&amp;dn=WWE+FRIDAY+NIGHT+SMACKDOWN+9_9_2011+HDTV+BZINGAZ.flv&amp;tr=udp%3A%2F%2Ftracker.openbittorrent.com%3A80&amp;tr=udp%3A%2F%2Fopen.demonii.com%3A1337&amp;tr=udp%3A%2F%2Ftracker.coppersurfer.tk%3A6969&amp;tr=udp%3A%2F%2Fexodus.desync.com%3A6969","seeders":0,"leechers":0,"uploader":"bzingaz","files":-1,"time":1315634857,"description":"WWE FRIDAY NIGHT SMACKDOWN 9_9_2011 HDTV  IN FLV FORMAT..IT IS THE FULL SHOW . PLEASE SEED AND COMMENT..\n\nSNAPSHOTS:\n &lt;a href=&quot;\nhttp://bayimg.com/maJpKAADP&quot; rel=&quot;nofollow&quot; target=&quot;_NEW&quot;&gt;\nhttp://bayimg.com/maJpKAADP&lt;/a&gt;\n &lt;a href=&quot;\nhttp://bayimg.com/mAJPlAaDp&quot; rel=&quot;nofollow&quot; target=&quot;_NEW&quot;&gt;\nhttp://bayimg.com/mAJPlAaDp&lt;/a&gt;\n &lt;a href=&quot;\nhttp://bayimg.com/maJpnAAdp&quot; rel=&quot;nofollow&quot; target=&quot;_NEW&quot;&gt;\nhttp://bayimg.com/maJpnAAdp&lt;/a&gt;\n &lt;a href=&quot;\nhttp://bayimg.com/maJpoaaDp&quot; rel=&quot;nofollow&quot; target=&quot;_NEW&quot;&gt;\nhttp://bayimg.com/maJpoaaDp&lt;/a&gt;\n\n\nDETAILS ARE:\n\n\nVideo\nFormat                           : AVC\nFormat/Info                      : Advanced Video Codec\nFormat profile                   : &lt;a class=&quot;__cf_email__&quot; href=&quot;/cdn-cgi/l/email-protection&quot; data-cfemail=&quot;064b676f68464a352836&quot;&gt;[email&amp;#160;protected]&lt;/a&gt;&lt;script data-cfhash='f9e31' type=&quot;text/javascript&quot;&gt;\n/* &lt;![CDATA[ */!function(){try{var t=&quot;currentScript&quot;in document?document.currentScript:function(){for(var t=document.getElementsByTagName(&quot;script&quot;),e=t.length;e--;)if(t[e].getAttribute(&quot;data-cfhash&quot;))return t[e]}();if(t&amp;&amp;t.previousSibling){var e,r,n,i,c=t.previousSibling,a=c.getAttribute(&quot;data-cfemail&quot;);if(a){for(e=&quot;&quot;,r=parseInt(a.substr(0,2),16),n=2;a.length-n;n+=2)i=parseInt(a.substr(n,2),16)^r,e+=String.fromCharCode(i);e=document.createTextNode(e),c.parentNode.replaceChild(e,c)}t.parentNode.removeChild(t);}}catch(u){}}()/* ]]&gt; */&lt;/script&gt;\nFormat settings, CABAC           : Yes\nFormat settings, ReFrames        : 3 frames\nFormat settings, GOP             : M=1, N=56\nCodec ID                         : 7\nDuration                         : 1h 27mn\nBit rate                         : 749 Kbps\nWidth                            : 634 pixels\nHeight                           : 360 pixels\nDisplay aspect ratio             : 16:9\nFrame rate mode                  : Constant\nFrame rate                       : 29.970 fps\nColor space                      : YUV\nChroma subsampling               : 4:2:0\nBit depth                        : 8 bits\nScan type                        : Progressive\nBits/(Pixel*Frame)               : 0.110\nStream size                      : 468 MiB (85%)\n\nAudio\nFormat                           : AAC\nFormat/Info                      : Advanced Audio Codec\nFormat profile                   : LC\nCodec ID                         : 10\nDuration                         : 1h 27mn\nBit rate                         : 129 Kbps\nChannel(s)                       : 2 channels\nChannel positions                : Front: L R\nSampling rate                    : 44.1 KHz\nCompression mode                 : Lossy\nStream size                      : 80.4 MiB (15%)\n","torrent":{"xt":"urn:btih:ededa6b9ff6dc7be81202a591ee6fbcc80b17b66","amp;dn":"WWE+FRIDAY+NIGHT+SMACKDOWN+9_9_2011+HDTV+BZINGAZ.flv","amp;tr":["udp%3A%2F%2Ftracker.openbittorrent.com%3A80","udp%3A%2F%2Fopen.demonii.com%3A1337","udp%3A%2F%2Ftracker.coppersurfer.tk%3A6969","udp%3A%2F%2Fexodus.desync.com%3A6969"],"infoHash":"ededa6b9ff6dc7be81202a591ee6fbcc80b17b66","infoHashBuffer":{"type":"Buffer","data":[237,237,166,185,255,109,199,190,129,32,42,89,30,230,251,204,128,177,123,102]},"announce":[],"urlList":[]}}